<svg xmlns="http://www.w3.org/2000/svg" width="24" height="24" viewBox="0 0 24 24">
  <g id="menu" transform="translate(-0.263 -0.263)">
    <rect id="Rectangle_116" data-name="Rectangle 116" width="24" height="24" transform="translate(0.263 0.263)" fill="none"/>
    <path id="Path_4996" data-name="Path 4996" d="M909.026-1908.579a1.026,1.026,0,0,1-1.026-1.026,1.026,1.026,0,0,1,1.026-1.026H927.5a1.026,1.026,0,0,1,1.026,1.026,1.026,1.026,0,0,1-1.026,1.026Zm0-7.184A1.026,1.026,0,0,1,908-1916.79a1.026,1.026,0,0,1,1.026-1.026H927.5a1.026,1.026,0,0,1,1.026,1.026,1.026,1.026,0,0,1-1.026,1.026Zm0-7.184a1.026,1.026,0,0,1-1.026-1.026,1.026,1.026,0,0,1,1.026-1.026H927.5a1.026,1.026,0,0,1,1.026,1.026,1.026,1.026,0,0,1-1.026,1.026Z" transform="translate(-906 1929.053)" fill="#fff"/>
  </g>
</svg>
